<svg width="22" height="23" viewBox="0 0 22 23" fill="none" xmlns="http://www.w3.org/2000/svg">
<path d="M5.96899 0C2.67213 0 0 1.30134 0 2.9073V4.45993C0 6.06585 2.67213 7.36719 5.96899 7.36719C9.26442 7.36719 11.9373 6.06585 11.9373 4.45989V2.9073C11.9373 1.30134 9.26442 0 5.96899 0ZM5.96899 1.20728C8.8749 1.20728 10.7293 2.32331 10.7293 2.9073C10.7293 3.49128 8.8749 4.60732 5.96899 4.60732C3.06169 4.60732 1.20799 3.49128 1.20799 2.9073C1.20799 2.32331 3.06169 1.20728 5.96899 1.20728Z" fill="#85B103"/>
<path d="M5.96828 9.70309C7.07237 9.70309 8.10629 9.5557 8.99349 9.30157C8.13926 10.0526 7.44019 10.9805 6.94744 12.0222C6.63015 12.0481 6.30308 12.0629 5.96828 12.0629C2.67285 12.0629 0 10.7594 0 9.15419V7.32923C0 7.29976 0.0224609 7.27308 0.0519297 7.27025C0.0659902 7.26603 0.0813984 7.27308 0.0919551 7.28849C0.0849473 7.28849 0.0919551 7.30956 0.132654 7.40924C0.710305 8.72042 3.10311 9.70309 5.96828 9.70309Z" fill="#85B103"/>
<path d="M6.13323 15.6369C6.13323 15.9949 6.15569 16.3445 6.20272 16.6898C6.12622 16.6941 6.04828 16.6941 5.96827 16.6941C2.67285 16.6941 0 15.3941 0 13.7896V11.9597C0 11.9338 0.0224609 11.9085 0.0519297 11.9043C0.0757832 11.9015 0.0912363 11.9155 0.102467 11.9324C0.0884062 11.9141 0.0736719 11.9043 0.132654 12.0447C0.710305 13.3544 3.10311 14.3385 5.96827 14.3385C6.05673 14.3385 6.14868 14.3385 6.23641 14.3301C6.1662 14.7575 6.13323 15.192 6.13323 15.6369Z" fill="#85B103"/>
<path d="M8.16172 21.1259C7.48439 21.2593 6.74457 21.3288 5.96828 21.3288C2.67285 21.3288 0 20.0295 0 18.4208V16.5945C0 16.565 0.0224609 16.5425 0.0519297 16.5397C0.0743906 16.5355 0.095459 16.5467 0.103186 16.5692C0.0884512 16.5509 0.0702129 16.5326 0.132654 16.6759C0.710305 17.9898 3.10311 18.9725 5.96828 18.9725C6.25115 18.9725 6.53469 18.9613 6.80706 18.943C7.14536 19.7418 7.60581 20.4788 8.16172 21.1259Z" fill="#85B103"/>
<path d="M16.9075 15.1618H15.3184L15.1485 15.4264V16.0624H16.9075V16.0652V16.8358V16.965H15.1485V18.3281H14.0556V16.965H12.2966V16.8358V16.0652V16.0624H14.0556V15.4279L13.885 15.1618H12.2966V14.3904H13.3888L12.4602 12.9459H13.386L14.6017 14.8368L15.8174 12.9459H16.7439L15.8153 14.3904H16.9075V15.1618Z" fill="#85B103"/>
<path d="M14.6017 10.1144C17.6466 10.1144 20.1243 12.5921 20.1243 15.637C20.1243 18.6819 17.6466 21.1596 14.6017 21.1596C11.5575 21.1596 9.07983 18.6819 9.07983 15.637C9.07983 12.5921 11.5575 10.1144 14.6017 10.1144ZM14.6017 8.27405C10.5349 8.27405 7.23943 11.5709 7.23943 15.637C7.23943 19.7038 10.5348 23 14.6017 23C18.6686 23 21.9654 19.7038 21.9654 15.637C21.9654 11.5709 18.6685 8.27405 14.6017 8.27405Z" fill="#85B103"/>
</svg>
