<svg width="18" height="18" viewBox="0 0 18 18" fill="none" xmlns="http://www.w3.org/2000/svg">
<path d="M12.9413 0.78833C11.5823 0.78833 10.3496 1.65514 9.43945 3.057C7.53993 4.34625 4.59886 5.39158 4.02979 5.39158C3.35742 5.39158 3.72656 5.34873 3.09871 5.34873C1.38758 5.34876 0 6.93463 0 8.89076C0 10.7705 1.28211 12.3042 2.90039 12.4218L2.84544 15.6649C2.83665 16.1291 3.12504 16.5477 3.56175 16.7054L4.87241 17.1794C5.00864 17.2283 5.15805 17.2217 5.28824 17.1607L5.71068 16.9608C5.82602 16.9075 5.89855 16.791 5.89746 16.6636L5.86779 12.9293C6.98509 13.3578 8.37598 14.0027 9.43945 14.725C10.3497 16.1263 11.5823 16.9937 12.9413 16.9937C15.7313 16.9937 18 13.3589 18 8.89076C18 4.4237 15.7313 0.78833 12.9413 0.78833ZM13.1973 15.0623C11.2368 15.0623 9.64712 12.2987 9.64712 8.89076C9.64712 5.48278 11.2368 2.71971 13.1973 2.71971C15.1579 2.71971 16.7476 5.48278 16.7476 8.89072C16.7476 12.2987 15.1578 15.0623 13.1973 15.0623Z" fill="#C4D977"/>
<path d="M12.809 7.04663C12.108 7.04663 11.5384 7.82007 11.5384 8.77259C11.5384 9.72564 12.108 10.498 12.809 10.498C13.5104 10.498 14.079 9.72564 14.079 8.77259C14.079 7.82007 13.5104 7.04663 12.809 7.04663Z" fill="#C4D977"/>
</svg>
