<svg width="62" height="62" viewBox="0 0 62 62" fill="none" xmlns="http://www.w3.org/2000/svg">
<g clip-path="url(#clip0)">
<path d="M50.761 31.8477C48.9824 28.0256 46.3146 24.8243 43.8852 22.3418C42.6705 21.1026 41.5088 20.043 40.5514 19.1877C40.4341 19.0855 40.3318 18.9947 40.2221 18.8982C40.9412 18.164 41.3877 17.1631 41.3877 16.0544C41.3839 14.4745 40.4757 13.1198 39.1588 12.4442C39.5751 11.7403 40.4379 10.5692 42.1673 9.16901C42.769 8.6827 43.2457 8.13596 43.575 7.538C43.908 6.94004 44.0896 6.28541 44.0859 5.63271C44.0935 4.49746 43.5221 3.43595 42.6441 2.76243C41.7662 2.07934 40.6121 1.72938 39.3254 1.72744C38.6215 1.72938 37.8704 1.8334 37.0871 2.05294L37.0777 2.05669C36.7598 2.14376 36.5479 2.16834 36.4211 2.1664C36.3171 2.1664 36.2698 2.15502 36.2338 2.14364C36.1732 2.12281 36.0938 2.08503 35.8951 1.91465C35.6056 1.67053 35.1137 1.14268 34.3077 0.711221C33.4976 0.276373 32.4191 -0.00371663 31 3.72722e-05C29.9139 3.72722e-05 29.036 0.155158 28.317 0.429557C27.2272 0.834494 26.5649 1.5062 26.1903 1.83727C26.001 2.00753 25.8875 2.0889 25.8232 2.11918C25.757 2.14751 25.7362 2.16265 25.5773 2.16653C25.4505 2.16846 25.2329 2.14376 24.9075 2.05294L25.1326 2.11542L24.9113 2.05294C24.1279 1.83533 23.3787 1.72938 22.671 1.72744C21.3844 1.72938 20.234 2.07934 19.3561 2.76243C18.4782 3.43607 17.903 4.49746 17.9105 5.63271C17.9105 6.28359 18.0921 6.94016 18.4214 7.538C18.7544 8.13596 19.2274 8.6827 19.8291 9.16901C21.3353 10.3856 22.1867 11.4395 22.6597 12.1547C22.7334 12.2663 22.7808 12.3515 22.8376 12.4461C21.5207 13.1215 20.6125 14.4744 20.6125 16.0543C20.6125 17.163 21.0591 18.164 21.7742 18.898C19.8481 20.6066 16.9608 23.2291 14.4329 26.5932C13.0403 28.4456 11.7575 30.525 10.8152 32.8163C9.87302 35.1039 9.27505 37.609 9.27505 40.275C9.27505 52.2747 19.0003 62 31 62C42.9977 62 52.7212 52.2746 52.7249 40.2751C52.7249 37.2289 51.9417 34.3945 50.761 31.8477ZM24.6842 17.3278C23.9842 17.3259 23.4165 16.7601 23.4127 16.0544C23.4165 15.3581 23.9842 14.7867 24.6842 14.7849H37.312C38.0121 14.7868 38.5835 15.3581 38.5835 16.0544C38.5835 16.7601 38.0158 17.3259 37.312 17.3278H24.6842ZM21.5926 6.99138C21.2256 6.69616 21.0023 6.41619 20.8755 6.18345C20.7487 5.95264 20.7147 5.77476 20.7109 5.63283C20.7204 5.39634 20.7942 5.20707 21.0779 4.97057C21.3655 4.74546 21.8916 4.52967 22.671 4.52967C23.0986 4.52967 23.5944 4.59397 24.1544 4.75103L23.9293 4.68854L24.1564 4.75103C24.6597 4.89101 25.1232 4.96863 25.5773 4.96863C25.9482 4.97057 26.3076 4.91378 26.6349 4.80588C27.2121 4.61855 27.632 4.29317 27.931 4.03767C28.3851 3.63842 28.6349 3.37916 29.0057 3.18432C29.3766 2.99129 29.9139 2.80396 31 2.80215C31.8211 2.80215 32.3397 2.91573 32.6953 3.05003C33.2213 3.25443 33.4598 3.49662 33.9442 3.92796C34.1826 4.13793 34.4816 4.39913 34.9054 4.61674C35.3292 4.83628 35.8666 4.97251 36.421 4.96863C36.8732 4.96863 37.3387 4.89101 37.8419 4.75103H37.8457C38.402 4.59397 38.8996 4.52967 39.3253 4.52967C40.1049 4.52967 40.6347 4.74534 40.9184 4.97057C41.206 5.20707 41.278 5.39634 41.2855 5.63283C41.2855 5.77476 41.2514 5.95264 41.1227 6.18345C40.9959 6.41619 40.7708 6.69616 40.4075 6.99138C37.6243 9.23356 36.5854 11.1862 36.2524 11.9846H25.7456C25.4145 11.1861 24.3739 9.23344 21.5926 6.99138ZM44.3809 53.6559C40.9523 57.0825 36.2297 59.1979 31 59.1997C25.7702 59.1978 21.0475 57.0825 17.6191 53.6559C14.1926 50.2274 12.0772 45.5049 12.0753 40.2751C12.0753 37.7113 12.7339 35.2857 13.782 33.0265C15.3488 29.6397 17.8122 26.6502 20.1149 24.304C21.2672 23.1291 22.3759 22.1149 23.3107 21.2786C23.8027 20.8434 24.2378 20.4612 24.6201 20.1225C24.6428 20.1225 24.6617 20.1282 24.6844 20.1282H37.3121C37.3387 20.1282 37.3575 20.1225 37.3821 20.1206C37.524 20.2474 37.6526 20.3647 37.8097 20.5028C39.6999 22.1698 42.7575 24.8547 45.327 28.2755C46.6098 29.9822 47.7659 31.8686 48.5927 33.8818C49.4215 35.895 49.9228 38.0312 49.9228 40.2752C49.9209 45.5049 47.8074 50.2274 44.3809 53.6559Z" fill="#85B103"/>
<path d="M38.0802 39.9705H33.2025L32.6764 40.784V42.7366H38.0802V42.7443V45.1131V45.5086H32.6764V49.6938H29.3218V45.5086H23.9198V45.1131V42.7443V42.7366H29.3218V40.7879L28.7977 39.9705H23.9198V37.6015H27.2726L24.4232 33.1646H27.265L30.9962 38.9733L34.735 33.1646H37.577L34.7274 37.6015H38.0802V39.9705Z" fill="#85B103"/>
</g>
<defs>
<clipPath id="clip0">
<rect width="62" height="62" fill="white"/>
</clipPath>
</defs>
</svg>
