<svg width="23" height="23" viewBox="0 0 23 23" fill="none" xmlns="http://www.w3.org/2000/svg">
<path d="M15.1007 10.7574H12.6195L12.3528 11.1715V12.1647H15.1007V12.1682V13.3733V13.5748H12.3528V15.703H10.6465V13.5748H7.89923V13.3733V12.1682V12.1647H10.6465V11.1729L10.3798 10.7574H7.89923V9.55287H9.60487L8.1547 7.29626H9.60065L11.4993 10.2506L13.3987 7.29626H14.8446L13.3958 9.55287H15.1007V10.7574Z" fill="white"/>
<path d="M11.5 2.875C16.2561 2.875 20.125 6.7439 20.125 11.5C20.125 16.2561 16.2561 20.125 11.5 20.125C6.74462 20.125 2.875 16.2561 2.875 11.5C2.875 6.7439 6.74462 2.875 11.5 2.875ZM11.5 0C5.14845 0 0 5.14917 0 11.5C0 17.8515 5.14845 23 11.5 23C17.8508 23 23 17.8515 23 11.5C23 5.14917 17.8508 0 11.5 0Z" fill="white"/>
</svg>
